<svg xmlns="http://www.w3.org/2000/svg" width="127" height="75.8482" viewBox="0 0 127 75.8482"><defs><style>.cls-1{fill:#231f20;}</style></defs><title>Asset 2</title><g id="Layer_2" data-name="Layer 2"><g id="Layer_1-2" data-name="Layer 1"><path class="cls-1" d="M45.357,70.0068A34.68,34.68,0,0,1,27.2624,39.7883c0-.5052.0109-1.011.0394-1.517.0076-.2746.0289-.5533.052-.83l-.0805-.1415c-12.9624.3813-20.7014,7.2435-20.7014,18.3568,0,11.5671,8.2113,18.4729,21.9647,18.4729l17.7928-.3325V70.7857l-.2286-.4016C45.8547,70.2552,45.5994,70.1412,45.357,70.0068Zm-.9724,2.1775H28.5366c-18.0692,0-20.02-11.5593-20.02-16.5281,0-4.6694,1.7594-15.4541,17.7769-16.3672q-.003.2494-.0033.4988A35.6506,35.6506,0,0,0,44.3846,70.5759Z"/><path class="cls-1" d="M44.8625,68.2083l-9.77-17.1694C36.2769,58.0143,39.5117,64.1369,44.8625,68.2083Z"/><path class="cls-1" d="M94.3119,5.9333l-13.65.2034V10.29l.0257.0432c.3142.1916.6388.3674.9464.5685A34.5874,34.5874,0,0,1,97.3942,37.3766c.02.2921.0384.5741.0483.8652.0017.0315.0007.063.0023.0945l.0073.012c12.42-.7547,18.7176-6.1589,18.7176-16.061C116.17,8.77,104.2833,5.9333,94.3119,5.9333Zm3.9694,30.4056A35.8006,35.8006,0,0,0,82.6062,10.38V7.8781H94.3119c13.3992,0,19.913,4.7129,19.913,14.4092C114.2249,30.8489,109.0067,35.4522,98.2813,36.3389Z"/><path class="cls-1" d="M27.0213,38.6689v0Z"/><path class="cls-1" d="M52.9992,12.6133a12.8174,12.8174,0,0,1,.3017-3.1021l0-.0006h0a31.0637,31.0637,0,0,0-7.9437,6.4269v0a42.3563,42.3563,0,0,0-8.809,15.9264,47.1862,47.1862,0,0,0-1.1548,4.7172l-.0132-.003a9.5916,9.5916,0,0,0-.365,2.0906h.0091C33.2716,50.691,36.613,62.3132,45.357,68.5968v.0007a24.6131,24.6131,0,0,0,7.1468,3.4994q.9485.2928,1.8957.4971l.0042.0041L54.4,72.5936c-.953-.9143-1.4006-2.3919-1.4006-5.1437Z"/><path class="cls-1" d="M45.357,70.0069v3.15h-16.82c-15.8684,0-20.9923-8.8967-20.9923-17.5006,0-8.2941,4.8518-16.9474,19.7572-17.3852.01-.36.0287-.7282.0681-1.088v-.0007A34.7072,34.7072,0,0,1,45.357,9.55c.312-.1721.6369-.3231.9545-.4858l0,0A35.3021,35.3021,0,0,1,54.156,6.1373l.0017,0H46.3294v0L32.6881,5.9333a43.3116,43.3116,0,0,0-6.2932.4424C15.4121,7.2511,4.1614,10.8666,4.1614,22.2873c0,10.3447,9.48,14.2142,19.5335,15.4689C12.279,38.8263,0,43.8527,0,55.6562,0,69.2875,16.0518,73.8385,28.5369,73.8385H55.1286v-.1861h0A35.0387,35.0387,0,0,1,45.357,70.0069Zm-32.5813-47.72c0-9.5617,6.6993-14.4092,19.9124-14.4092H44.3846v1.103A35.5641,35.5641,0,0,0,26.4935,36.0882C17.2656,34.75,12.7757,30.2287,12.7757,22.2873Z"/><path class="cls-1" d="M106.63,38.1931q-1.2566-.3171-2.6713-.53c9.8063-1.3405,18.8809-5.2565,18.8809-15.3759,0-13.6419-16.0536-16.15-28.5279-16.15h-22.44v.3307a35.2583,35.2583,0,0,1,9.7616,4.4335V6.9054H94.3117c15.8584,0,20.8856,6.7771,20.8856,15.3819,0,7.695-4.1337,13.8754-16.6439,14.985-.0308,0-.0592-.0019-.09-.0019h-.6973l-.0406.0762c-.1139.0079-.216.0227-.3313.03v0c.02.2921.0384.5741.0483.8652v.0006c.0287.5156.0386,1.03.0386,1.5459A34.5625,34.5625,0,0,1,81.6335,68.6466l0,0v0a35.0259,35.0259,0,0,1-9.5967,4.404h-.01a1.32,1.32,0,0,1-.1552.1062v.6817H82.9044l15.559.2906a32.8846,32.8846,0,0,0,7.7676-.8784C116.7265,71.6479,127,66.5579,127,55.6562,127,44.9954,116.9746,39.8753,106.63,38.1931ZM98.4634,72.1843H82.6062V69.1681a35.4237,35.4237,0,0,0,15.8473-29.38c0-.1913-.0013-.3813-.004-.5726h.0139c18.0685,0,20.0192,11.4972,20.0192,16.441C118.4826,60.625,116.5319,72.1843,98.4634,72.1843Z"/><path class="cls-1" d="M81.6439,12.8371l.0242,47.9687a43.9181,43.9181,0,0,0,6.5284-13.1811,45.124,45.124,0,0,0,1.8277-9.3823v-.0006c.0287-.2527.0485-.5149.0582-.7676C90.7233,27.8156,87.9656,18.71,81.6439,12.8371Z"/><path class="cls-1" d="M74.0009,12.6133V67.45c0,.3591-.01.6894-.02,1.011v0a33.7251,33.7251,0,0,0,7.6519-7.6036V12.8265a23.73,23.73,0,0,0-8.8374-5.1524C73.6115,8.6074,74.0009,10.0561,74.0009,12.6133Z"/><path class="cls-1" d="M68.8544,73.7857a33.74,33.74,0,0,1-10.884.3361,4.3018,4.3018,0,0,1-1.1888.9678v.7586H70.2177V75.09A4.11,4.11,0,0,1,68.8544,73.7857Z"/><path class="cls-1" d="M58.57,73.1643A23.4166,23.4166,0,0,0,68.0663,71.63a16.0549,16.0549,0,0,1-.2321-2.9327V7.2593c0-.2418.0121-.45.0182-.6752a23.269,23.269,0,0,0-8.5816.559c0,.041.0032.0747.0032.1162V68.6971A10.7217,10.7217,0,0,1,58.57,73.1643Z"/><path class="cls-1" d="M56.7816.8668c1.4009.7879,2.1559,2.0224,2.3977,4.4591,1.0542-.0965,2.1168-.1611,3.1929-.1611a35.1272,35.1272,0,0,1,5.528.4529c.206-2.6359.9519-3.9318,2.3175-4.7509V0H56.7816Z"/></g></g></svg>